<?xml version="1.0" ?><svg enable-background="new 0 0 512 512" id="Layer_1" version="1.1" viewBox="0 0 512 512" xml:space="preserve" xmlns="http://www.w3.org/2000/svg" xmlns:xlink="http://www.w3.org/1999/xlink"><path d="M268.443,444.934c0-3.942-18.819-7.138-42.032-7.138s-42.032,3.196-42.032,7.138  c0,1.291,2.031,2.502,5.563,3.547c-1.14,0.867,18.015,4.455,41.65,3.535C255.228,451.097,268.443,448.578,268.443,444.934z" fill="#3E3E3E" opacity="0.32"/><g><path d="M291.43,408.187c-3.369-1.885-7.444-2.184-10.785-0.067c-1.665,1.059-2.882,2.602-3.834,4.304   c-0.782,1.394-0.854,1.645-2.072,2.985c-0.399,0.402-0.386,0.395,0.04-0.029c-0.19,0.16-0.389,0.311-0.592,0.456   c-0.195,0.136-0.394,0.265-0.599,0.382c1.034-0.629,0.125-0.123-0.144-0.02c-0.762,0.287,0.939-0.115-0.382,0.065   c-1.339,0.184,0.663,0.145-0.705,0.017c-0.447-0.042-0.894-0.133-1.334-0.227c-0.227-0.053-0.452-0.11-0.678-0.172   c1.306,0.346,0.118,0.008-0.126-0.079c-1.081-0.377-2.12-0.859-3.153-1.346c-4.472-2.112-8.934-4.806-13.988-5.171   c-6.301-0.455-14.15,3.227-17.302-3.703c-1.09-2.391-3.673-3.755-6.236-2.769c-2.346,0.903-3.859,3.841-2.77,6.237   c1.918,4.216,4.842,7.699,9.297,9.309c4.178,1.515,8.699,1.237,13.037,0.77c0.777-0.084,1.554-0.186,2.33-0.262   c0.245-0.017,0.486-0.029,0.727-0.029c-1.22,0.029-0.024,0.033,0.218,0.06c0.617,0.063,1.23,0.194,1.836,0.337   c0.536,0.147,0.488,0.126-0.141-0.052c0.372,0.112,0.735,0.246,1.103,0.377c2.383,0.859,4.635,2.075,6.902,3.196   c4.709,2.328,9.944,4.287,15.139,2.33c3.277-1.238,5.572-3.966,7.338-6.864c0.108-0.178,0.973-1.684,0.678-1.224   c0.185-0.272,0.387-0.532,0.605-0.778c-0.636,0.764,0.731-0.389-0.269,0.126c0.513-0.183,0.502-0.206-0.031-0.062   c1.163-0.244-0.795-0.17,0.441-0.002c0.553,0.118,0.59,0.124,0.112,0.023c0.496,0.178,0.96,0.444,1.421,0.701   c2.298,1.285,5.374-0.215,6.368-2.453C295.022,411.983,293.723,409.472,291.43,408.187L291.43,408.187z" fill="#EB9522"/></g><path clip-rule="evenodd" d="M179.178,343.596c0.15,2.047,0.235,8.256,0.235,8.256  s-10.474,46.079-2.255,48.47c8.218,2.391,19.656-52.125,18.312-52.587C194.128,347.272,179.178,343.596,179.178,343.596z" fill="#EB9522" fill-rule="evenodd"/><path clip-rule="evenodd" d="M246.154,374.482c1.908-0.755,7.537-3.378,7.537-3.378  s36.943-29.464,42.667-23.102c5.726,6.359-38.394,40.363-39.396,39.354C255.962,386.346,246.154,374.482,246.154,374.482z" fill="#EB9522" fill-rule="evenodd"/><path clip-rule="evenodd" d="M179.689,356.56c-3.074,10.244,13.307,89.071,19.773,88.417  c8.379-0.848,1.868-16.676,23.708-17.53c19.101-0.749,21.819,16.864,27.602,16.49c5.781-0.371,14.689-65.427,14.334-75.094  C264.755,359.176,179.689,356.56,179.689,356.56z" fill="#EB9522" fill-rule="evenodd"/><path clip-rule="evenodd" d="M211.791,430.212c2.571-1.503,6.166-2.561,11.379-2.766  c4.714-0.186,8.428,0.751,11.44,2.256c4.534-5.263,7.456-13.525,7.456-22.818c0-15.895-8.547-28.782-19.093-28.782  c-10.545,0-19.092,12.886-19.092,28.782C203.881,416.482,206.999,424.982,211.791,430.212z" fill="#FAA724" fill-rule="evenodd"/><g><g><g><g><path d="M93.53,221.392c0,0-3.627-6.692-10.95-16.667c-6.391-8.715-15.601-19.934-27.678-31.395      c-26.078-24.749-25.397-11.185-24.355,23.99c0.244,8.176,2.536,16.987,6.757,25.472c8.115,16.307,23.35,31.415,44.874,38.533      C114.902,272.144,112.858,236.133,93.53,221.392z" fill="#EB9522"/><path d="M95.188,192.085c-4.374-6.868-9.617-14.514-17.117-21.549c-39.819-37.351-91.365-71.925-56.967,52.824      c6.833,21.554,22.865,40.508,56.2,47.433c32.366,4.4,37.438-30.82,32.513-45.563      C109.817,225.231,106.903,210.474,95.188,192.085z M82.177,261.324c-21.524-7.118-36.759-22.226-44.874-38.533      c-4.221-8.485-6.513-17.296-6.757-25.472c-1.041-35.175-1.723-48.739,24.355-23.99c12.077,11.461,21.287,22.681,27.678,31.395      c7.323,9.975,10.95,16.667,10.95,16.667C112.858,236.133,114.902,272.144,82.177,261.324z" fill="#FDB92E"/></g></g></g><g><g><g><path d="M273.599,130.896c-16.994-30.816-23.307-42.841-33.171-8.269c-4.568,16.01-6.793,30.355-7.866,41.109      c-1.227,12.312-0.949,19.921-0.949,19.921c-9.144,22.521,7.41,54.567,30.084,28.607c14.912-17.075,20.346-37.832,19.038-56      C280.055,146.812,277.547,138.059,273.599,130.896z" fill="#EB9522"/><path d="M219.057,132.007c-2.877,9.871-3.503,19.12-3.779,27.259c-0.732,21.789,4.262,35.978,4.262,35.978      c3.26,15.198,25.54,42.943,51.169,22.694c25.181-22.917,29.344-47.39,24.265-69.424      C261.145,23.611,234.347,79.595,219.057,132.007z M261.698,212.263c-22.675,25.96-39.228-6.086-30.084-28.607      c0,0-0.278-7.608,0.949-19.921c1.072-10.754,3.298-25.098,7.866-41.109c9.865-34.572,16.177-22.547,33.171,8.269      c3.948,7.163,6.455,15.916,7.136,25.367C282.044,174.431,276.61,195.188,261.698,212.263z" fill="#FDB92E"/></g></g></g></g><path d="M237.061,168.416c-31.511-2.516-60.49,3.423-81.144,9.757c-21.007,5.051-48.977,14.676-74.83,32.869  C31.028,246.272,38.89,336.194,66.031,356.884c24.73,18.849,90.751,32.846,142.718,14.607  c54.018-10.726,103.745-56.355,115.451-85.161C337.045,254.712,298.081,173.289,237.061,168.416z" fill="#FAA724"/><g><g><path d="M127.341,337.671c-15.675,0.931-31.299,2.688-46.691,5.818c-15.888,3.231-31.747,6.712-47.475,10.654    c-8.763,2.197-17.479,4.572-26.124,7.198c-1.672,0.507-0.595,2.999,1.063,2.496c15.569-4.724,31.38-8.604,47.258-12.153    c15.56-3.48,31.151-6.984,46.982-9.016c8.416-1.077,16.873-1.802,25.345-2.308C129.45,340.256,129.073,337.565,127.341,337.671z" fill="#B5742A"/><path d="M132.516,353.116c-14.631,5.702-28.956,12.169-42.644,19.879c-14.128,7.956-28.149,16.14-41.904,24.725    c-7.664,4.781-15.23,9.719-22.649,14.873c-1.436,0.999,0.355,3.039,1.779,2.052c13.365-9.279,27.219-17.828,41.239-26.085    c13.739-8.093,27.5-16.218,41.937-23.016c7.68-3.611,15.507-6.898,23.412-9.982C135.319,354.926,134.133,352.481,132.516,353.116z    " fill="#B5742A"/><path d="M136.192,342.714c-15.421,2.962-30.683,6.733-45.538,11.835c-15.336,5.268-30.608,10.781-45.69,16.735    c-8.403,3.311-16.737,6.8-24.966,10.526c-1.597,0.719-0.201,3.05,1.376,2.337c14.827-6.707,29.997-12.607,45.278-18.19    c14.979-5.472,29.984-10.973,45.413-15.04c8.207-2.162,16.499-3.977,24.831-5.581C138.62,345.006,137.898,342.388,136.192,342.714    z" fill="#B5742A"/></g><g><path d="M262.628,304.568c13.968-7.169,28.311-13.603,43.158-18.735c15.323-5.3,30.75-10.366,46.294-14.972    c8.661-2.567,17.376-4.953,26.156-7.091c1.697-0.413,2.036,2.282,0.356,2.691c-15.814,3.85-31.4,8.552-46.872,13.57    c-15.17,4.918-30.378,9.833-45.039,16.133c-7.794,3.352-15.445,7.03-22.996,10.902    C262.125,307.868,261.083,305.361,262.628,304.568z" fill="#B5742A"/><path d="M266.026,320.499c15.496-2.531,31.119-4.248,46.826-4.572c16.211-0.332,32.448-0.417,48.658-0.023    c9.03,0.219,18.055,0.625,27.065,1.288c1.745,0.127,1.239,2.796-0.486,2.672c-16.23-1.193-32.504-1.509-48.775-1.488    c-15.944,0.019-31.927,0.024-47.812,1.515c-8.451,0.795-16.863,1.945-25.235,3.311    C264.533,323.484,264.312,320.779,266.026,320.499z" fill="#B5742A"/><path d="M257.572,313.416c14.78-5.295,29.84-9.811,45.227-12.97c15.882-3.265,31.832-6.284,47.846-8.833    c8.921-1.421,17.872-2.654,26.853-3.635c1.738-0.188,1.724,2.528,0.004,2.716c-16.177,1.764-32.241,4.401-48.235,7.367    c-15.682,2.903-31.397,5.801-46.751,10.147c-8.165,2.313-16.229,4.963-24.218,7.822    C256.646,316.621,255.936,313.999,257.572,313.416z" fill="#B5742A"/></g></g><g><ellipse cx="224.38" cy="240.315" fill="#FFFFFF" rx="52.843" ry="52.843" transform="matrix(0.9646 -0.2636 0.2636 0.9646 -55.4146 67.6513)"/><ellipse cx="130.013" cy="266.104" fill="#FFFFFF" rx="52.843" ry="52.843" transform="matrix(0.9646 -0.2636 0.2636 0.9646 -65.5506 43.6863)"/></g><g><g><path d="M246.174,182.238c-1.622,0.186-3.306-0.305-4.606-1.491c-0.672-0.618-16.006-14.233-35.882-4.453    c-2.861,1.419-6.316,0.232-7.726-2.625c-1.419-2.863-0.235-6.324,2.621-7.732c27.148-13.373,47.967,5.509,48.838,6.317    c2.335,2.19,2.467,5.845,0.301,8.176C248.746,181.474,247.484,182.078,246.174,182.238z" fill="#3F2945"/></g></g><g><g><path d="M108.58,200.701c-0.966,1.316-2.472,2.217-4.225,2.367c-0.909,0.073-21.32,2.07-27.649,23.298    c-0.903,3.062-4.124,4.79-7.176,3.883c-3.065-0.905-4.8-4.125-3.891-7.177c8.637-29.005,36.635-31.447,37.822-31.536    c3.192-0.224,5.964,2.162,6.202,5.336C109.766,198.293,109.351,199.631,108.58,200.701z" fill="#3F2945"/></g></g><g><g><path d="M242.537,320.252c-20.33,22.115-48.656,32.517-77.654,25.421" fill="#B5742A"/></g></g><g><path d="M245.624,249.618c-1.988-0.365-3.303-2.27-2.936-4.265c1.072-5.825-2.802-11.444-8.633-12.517   c-5.832-1.072-11.449,2.802-12.521,8.626c-0.368,1.995-2.273,3.307-4.267,2.941c-1.988-0.366-3.303-2.271-2.936-4.265   c1.802-9.801,11.243-16.319,21.051-14.515c9.808,1.803,16.316,11.254,14.514,21.054   C249.529,248.673,247.622,249.985,245.624,249.618z" fill="#3F2945"/></g><g><path d="M361.91,335.758c-1.39-1.098-3.755-2.269-7.122-1.626c-1.988,0.379-4.97,1.494-8.423,2.785   c-6.166,2.306-15.488,5.789-17.96,3.837c-0.057-0.044-0.111-0.094-0.161-0.147c-0.011-0.012-1.09-1.342,5.071-9.035   c3.909-4.88,9.331-10.617,13.688-15.226c3.352-3.545,5.998-6.345,7.261-7.986c6.155-8.003,7.614-14.243,4.004-17.119l-0.09-0.071   c-3.927-3.099-7.522-3.554-15.244,2.899c-2.14,1.786-5.15,4.935-8.641,8.582c-4.4,4.6-9.391,9.814-13.798,13.498   c-5.877,4.913-8.09,4.89-8.896,4.381c-0.123-0.43-0.2-2.609,4.611-12.205c3.159-6.301,7.292-13.594,10.611-19.452   c1.818-3.206,3.387-5.975,4.352-7.805c3.771-7.143,6.508-13.358,1.803-17.07c-0.187-0.149-0.387-0.293-0.596-0.432   c-4.552-3.028-9.062-1.955-13.79,3.276c-2.548,2.82-6.286,8.7-10.614,15.507c-6.41,10.082-15.189,23.892-18.974,24.631   c-0.302,0.058-0.414-0.022-0.467-0.061l-0.081-0.059c-1.926-1.521-4.538-8.462-0.406-37.885c1.41-10.027-0.037-16.582-4.42-20.04   c-1.493-1.18-3.336-1.969-5.475-2.346c-2.01-0.354-3.785,0.017-5.27,1.105c-4.204,3.077-5.285,11.216-6.431,19.834   c-0.246,1.846-0.499,3.754-0.781,5.563c-2.483,15.892-8.865,39.146-15.282,41.087c-2.064,0.625-5.25-0.746-9.47-4.075   c-4.422-3.489-9.115-8.424-13.255-12.778c-2.817-2.962-5.25-5.52-7.097-7.087c-5.06-4.301-10.79-3.68-13.854-1.337   c-2.461,1.881-3.277,4.72-2.13,7.408c1.59,3.733,3.992,7.498,7.03,12.263c3.064,4.803,6.537,10.247,10.305,17.398   c2.13,4.037,3.646,8.429,5.251,13.078c3.739,10.822,7.973,23.086,21.491,33.75c1.549,1.223,3.215,2.418,4.951,3.555   c19.09,12.497,35.968,15.241,51.594,8.391c5.096-2.233,13.173-7.848,20.986-13.278c6.789-4.718,13.806-9.597,18.35-11.863   c6.852-3.418,20-11.209,20.704-16.232C365.617,340.731,364.245,337.601,361.91,335.758z" fill="#BB4E9D"/><g opacity="0.5"><path d="M264.016,329.138c0,0,8.665,7.701,11.072,13.716c2.408,6.017,3.07,13.777,3.07,13.777    s5.834-12.455,1.561-18.772C275.447,331.543,267.506,329.137,264.016,329.138z" fill="#8F3D7C"/></g></g><ellipse cx="130.19" cy="265.668" fill="#3F2945" rx="11.201" ry="11.206"/><path d="M209.768,261.343c-0.629-1.349-1.999-2.221-3.487-2.221c-0.565,0-1.113,0.121-1.628,0.361  c-0.259,0.12-25.817,12.401-20.787,41.111c0.322,1.845,1.915,3.185,3.787,3.185l0,0c0.221,0,0.443-0.019,0.668-0.058  c2.09-0.366,3.492-2.364,3.126-4.455c-4.008-22.884,15.632-32.418,16.465-32.811C209.833,265.558,210.664,263.264,209.768,261.343z" fill="#8F3D7C"/><path d="M194.747,252.19c-0.629-1.349-1.998-2.221-3.488-2.221c-0.565,0-1.112,0.121-1.627,0.361  c-0.258,0.12-25.816,12.401-20.787,41.111c0.322,1.845,1.915,3.185,3.786,3.185h0.001c0.22,0,0.442-0.019,0.667-0.058  c2.09-0.366,3.492-2.364,3.125-4.455c-4.004-22.866,15.632-32.417,16.463-32.809c0.932-0.435,1.639-1.207,1.989-2.173  C195.228,254.166,195.181,253.122,194.747,252.19z" fill="#8F3D7C"/><path d="M367.588,350.289c-0.36-2.06-2.3-3.5-4.454-3.127c-2.09,0.366-3.492,2.364-3.126,4.455  c4.008,22.879-15.633,32.419-16.467,32.812c-1.919,0.899-2.751,3.192-1.854,5.112c0.629,1.349,1.998,2.221,3.487,2.221  c0.565,0,1.112-0.122,1.627-0.362C347.059,391.279,372.618,378.998,367.588,350.289z" fill="#8F3D7C"/><path d="M382.609,359.441c-0.359-2.06-2.308-3.501-4.455-3.127c-2.089,0.365-3.491,2.364-3.125,4.454  c4.008,22.878-15.634,32.419-16.468,32.812c-1.919,0.9-2.75,3.193-1.854,5.112c0.628,1.349,1.998,2.221,3.488,2.221  c0.564,0,1.11-0.122,1.627-0.362C362.079,400.431,387.639,388.151,382.609,359.441z" fill="#8F3D7C"/><path d="M316.846,189.744l6.741-61.166c1.072-9.73,2.12-19.463,3.215-29.191c0.649-5.76,1.07-12.846,5.455-17.223  c3.865-3.855,8.985-3.626,14.023-3.079c10.762,1.164,21.502,2.68,32.245,4.018c20.43,2.544,40.859,5.09,61.29,7.635  c9.32,1.161,18.638,2.322,27.957,3.483c5.634,0.702,15.457,0.185,18.705,6.218c2.766,5.143,0.099,13.698-0.433,19.092l-3.11,31.62  c-1.982,20.149-3.562,40.385-5.948,60.49c-0.711,5.962-2.121,11.235-8.289,13.542c-7.888,2.95-18.881,0.688-26.957,0.175  c-22.841-1.453-45.893-3.576-68.366-8.022c-0.077-0.016-0.132-0.057-0.202-0.082c-7.365,14.36-21.841,23.717-37.648,26.14  c-1.531,0.231-2.356-1.448-1.61-2.652c5.072-8.181,10.247-19.568,6.525-29.183c-6.149-0.809-15.97-0.251-20.936-4.522  C314.639,202.855,316.239,195.254,316.846,189.744z" fill="#88CBEC"/><g><path d="M354.177,126.013c2.066-11.135,3.605-18.267,4.614-21.396c1.32-3.938,3.105-6.25,5.356-6.935   c2.887-0.836,6.128-0.035,9.722,2.4c3.589,2.481,5.838,5.435,6.749,8.863c0.318,1.145,0.274,2.76-0.133,4.846   c-0.146,0.516-0.55,2.181-1.214,4.993c-0.325,1.34-0.618,2.595-0.879,3.764c-0.349,1.56-0.704,3.163-1.061,4.81   c-1.673,7.539-2.109,11.509-1.308,11.906c0.422,0.18,1.156-0.228,2.196-1.223l0.68-0.725l0.823-0.841   c0.696-0.678,1.336-1.251,1.921-1.72c2.812-2.177,6.275-3.593,10.386-4.251c3.654-0.531,6.871-0.332,9.655,0.594   c5.137,1.719,8.915,6.728,11.331,15.026c0.867,3.024,1.589,6.543,2.169,10.557c0.193,1.486,0.39,3.128,0.592,4.925   c0.059,0.672,0.13,1.435,0.215,2.287l0.089,1.008l0.088,1.008l0.047,0.804l0.102,0.876c0.055,0.716,0.09,1.408,0.106,2.076   c0.123,1.701,0.207,3.351,0.255,4.955c0.146,4.322,0.029,8.214-0.352,11.679c-1.054,10.003-4.146,16.122-9.273,18.355   c-2.8,1.245-5.944,1.388-9.434,0.428c-3.538-0.921-6.039-2.594-7.505-5.018c-0.786-1.329-1.112-2.807-0.976-4.435   c0.125-1.14,0.563-2.911,1.316-5.315l0.502-1.543l0.525-1.739c0.412-1.33,0.751-2.603,1.018-3.816   c0.751-3.202,1.179-6.484,1.281-9.846l0.057-1.126l-0.001-1.198c0.012-0.93,0.019-1.795,0.018-2.594   c-0.032-2.134-0.183-3.992-0.453-5.575c-0.722-4.34-2.317-7.178-4.789-8.515c-1.678-0.893-3.648-1.133-5.913-0.716   c-2.134,0.431-3.964,1.34-5.492,2.726c-1.573,1.381-2.589,3.377-3.055,5.988c-0.367,2.136-0.504,5.804-0.41,11.007   c0.083,4.492,0.249,9.038,0.5,13.636c0.049,0.761,0.09,1.608,0.119,2.543l0.075,1.14l0.074,1.14   c0.091,1.607,0.154,2.836,0.193,3.683c0.181,4.014-0.451,6.741-1.896,8.18c-2.209,2.331-5.397,3.469-9.562,3.411   c-4.166-0.058-7.41-1.237-9.731-3.532c-1.128-1.056-1.955-2.412-2.483-4.068c-0.205-0.555-0.362-1.15-0.469-1.782l-0.177-0.818   l-0.037-0.271l-0.031-0.336C347.925,176.056,349.212,152.631,354.177,126.013z" fill="#FFFFFF"/><path d="M431.5,141.498c0.253-0.282,0.504-0.544,0.752-0.783c0.3-0.322,0.62-0.597,0.956-0.827   c0.871-0.658,1.816-1.176,2.834-1.552c2.352-0.807,4.952-0.832,7.797-0.076c2.715,0.743,4.841,1.996,6.379,3.763   c1.175,1.417,1.717,3.341,1.628,5.771c-0.071,1.457-0.692,5.694-1.861,12.711c-2.214,13.694-3.42,21.838-3.617,24.435   c-0.153,2.603-0.201,5.26-0.143,7.973l0.031,1.535l0.046,1.402c0.01,1.112,0.008,1.932-0.005,2.463   c0.038,2.89-0.659,4.988-2.09,6.295c-2.228,2.107-5.391,3.224-9.488,3.351c-4.187,0.117-7.585-0.856-10.199-2.918   c-1.628-1.333-2.508-3.027-2.637-5.083c-0.104-1.476,0.218-4.015,0.969-7.616l0.269-1.236l0.269-1.235   c0.202-1.043,0.393-1.976,0.573-2.8c0.42-2.217,0.789-4.351,1.103-6.402c0.743-5.555,1.021-11.317,0.834-17.285l-0.021-0.402   l-0.031-0.336l-0.029-0.935c-0.007-0.755,0.007-1.486,0.04-2.192c0.046-2.036,0.213-3.949,0.497-5.737   C427.149,148.588,428.863,144.494,431.5,141.498z M432.415,113.77c1.002-1.842,2.478-3.366,4.431-4.573   c0.667-0.414,1.368-0.759,2.11-1.034c0.278-0.103,0.532-0.207,0.767-0.315l0.343-0.095l0.204-0.044l0.204-0.044l0.343-0.096   c0.321-0.097,0.661-0.17,1.024-0.22c1.085-0.191,2.16-0.273,3.222-0.246c3.274,0.094,6.041,1.153,8.306,3.177l0.117,0.146   l0.241,0.226c0.2,0.2,0.42,0.424,0.659,0.672c0.628,0.735,1.189,1.507,1.676,2.315c1.451,2.555,1.999,5.235,1.647,8.036   c-0.367,2.534-1.458,4.789-3.273,6.763c-0.604,0.645-1.291,1.235-2.058,1.771c-0.246,0.196-0.509,0.388-0.796,0.579l-0.287,0.168   l-0.21,0.11c-2.231,1.309-4.675,1.95-7.335,1.924c-2.876-0.093-5.398-0.969-7.567-2.629c-2.586-1.926-4.209-4.523-4.87-7.792   C430.645,119.39,431.01,116.457,432.415,113.77z" fill="#FFFFFF"/></g></svg>